<svg width="16" height="16" viewBox="0 0 16 16" fill="none" xmlns="http://www.w3.org/2000/svg">
<rect width="16" height="16" rx="5" fill="#FF4500"/>
<path d="M7.35 7.5H6.475H8.35H7.35ZM4.5 11.5C3.80833 11.5 3.21875 11.2562 2.73125 10.7687C2.24375 10.2812 2 9.69167 2 9C2 8.30833 2.24375 7.71875 2.73125 7.23125C3.21875 6.74375 3.80833 6.5 4.5 6.5H10.3L9.3 5.5H7.5V4.5H9.2875C9.42083 4.5 9.54792 4.525 9.66875 4.575C9.78958 4.625 9.89583 4.69583 9.9875 4.7875L11.725 6.525C12.375 6.575 12.9167 6.8375 13.35 7.3125C13.7833 7.7875 14 8.35 14 9C14 9.69167 13.7563 10.2812 13.2688 10.7687C12.7813 11.2562 12.1917 11.5 11.5 11.5C10.8083 11.5 10.2188 11.2562 9.73125 10.7687C9.24375 10.2812 9 9.69167 9 9C9 8.85 9.01042 8.70208 9.03125 8.55625C9.05208 8.41042 9.09167 8.26667 9.15 8.125L7.775 9.5H6.95C6.83333 10.0833 6.54583 10.5625 6.0875 10.9375C5.62917 11.3125 5.1 11.5 4.5 11.5ZM11.5 10.5C11.9167 10.5 12.2708 10.3542 12.5625 10.0625C12.8542 9.77083 13 9.41667 13 9C13 8.58333 12.8542 8.22917 12.5625 7.9375C12.2708 7.64583 11.9167 7.5 11.5 7.5C11.0833 7.5 10.7292 7.64583 10.4375 7.9375C10.1458 8.22917 10 8.58333 10 9C10 9.41667 10.1458 9.77083 10.4375 10.0625C10.7292 10.3542 11.0833 10.5 11.5 10.5ZM4.5 10.5C4.81667 10.5 5.10208 10.4083 5.35625 10.225C5.61042 10.0417 5.79167 9.8 5.9 9.5H4.5V8.5H5.9C5.79167 8.2 5.61042 7.95833 5.35625 7.775C5.10208 7.59167 4.81667 7.5 4.5 7.5C4.08333 7.5 3.72917 7.64583 3.4375 7.9375C3.14583 8.22917 3 8.58333 3 9C3 9.41667 3.14583 9.77083 3.4375 10.0625C3.72917 10.3542 4.08333 10.5 4.5 10.5ZM6.975 8.5H7.35L8.35 7.5H6.475C6.6 7.64167 6.70417 7.79583 6.7875 7.9625C6.87083 8.12917 6.93333 8.30833 6.975 8.5Z" fill="#E3E3E3"/>
</svg>
